<?xml version="1.0" encoding="UTF-8" standalone="no"?><!DOCTYPE svg PUBLIC "-//W3C//DTD SVG 1.1//EN" "http://www.w3.org/Graphics/SVG/1.1/DTD/svg11.dtd"><svg width="100%" height="100%" viewBox="0 0 404 800" version="1.1" xmlns="http://www.w3.org/2000/svg" xmlns:xlink="http://www.w3.org/1999/xlink" xml:space="preserve" xmlns:serif="http://www.serif.com/" style="fill-rule:evenodd;clip-rule:evenodd;stroke-linejoin:round;stroke-miterlimit:2;"><g><g><g><path d="M403.557,447.17c-4.13,65.311 -37.408,270.002 -42.288,291.147c-11.51,50.047 -55.55,57.805 -70.94,58.43c-15.263,0.501 -88.08,3.253 -88.33,3.253c-0.25,0 -73.066,-2.752 -88.33,-3.253c-6.756,-0.25 -18.641,-1.877 -31.153,-7.633c-12.637,-6.005 -25.773,-16.264 -34.03,-33.906c-0.125,-0.125 -0.125,-0.25 -0.125,-0.25c-2.252,-5.003 -4.255,-10.51 -5.63,-16.641c-4.879,-21.147 -38.16,-225.836 -42.288,-291.147c-4.754,-76.948 29.903,-127.495 48.669,-167.032c26.024,-55.051 60.179,-87.457 77.571,-160.276c0.75,-3.253 1.502,-6.504 2.127,-9.632c0.376,-1.752 0.75,-3.378 1.001,-5.005c0.125,-0.125 0.125,-0.25 0.125,-0.375c0.75,-3.378 1.377,-6.631 1.877,-9.759c0.75,-3.754 1.251,-7.257 1.626,-10.51c0.877,-6.256 1.252,-11.886 1.252,-16.64c-0.25,-12.136 1.376,-21.521 4.378,-28.903c0.75,-1.75 1.501,-3.379 2.376,-4.879c1.627,-3.003 3.628,-5.631 6.005,-7.759c2.251,-2.127 4.754,-3.878 7.382,-5.38c2.752,-1.378 5.63,-2.501 8.633,-3.378c1.25,-0.375 2.376,-0.751 3.628,-1.001c6.756,-1.375 14.263,-1.875 22.019,-1.875c4.253,-0 8.508,0.125 12.887,0.25c4.38,-0.125 8.633,-0.25 12.887,-0.25c7.758,-0 15.264,0.501 22.02,1.875c1.252,0.25 2.377,0.626 3.628,1.001c2.503,0.627 5.005,1.627 7.258,2.753c1.001,0.502 2.001,1.002 2.878,1.502c2.126,1.251 4.004,2.753 5.881,4.505c2.251,2.128 4.378,4.756 6.004,7.759c0.877,1.5 1.627,3.128 2.377,4.878c3.003,7.383 4.629,16.767 4.378,28.903c-0,4.755 0.375,10.385 1.251,16.641c0.375,3.253 0.877,6.756 1.627,10.509c0.5,3.128 1.125,6.381 1.876,9.76c0,0.125 0,0.25 0.125,0.375c0.25,1.626 0.625,3.253 1.002,5.004c1.376,6.63 1.751,8.133 2.126,9.633c17.392,72.819 51.547,105.225 77.571,160.275c18.767,39.536 53.423,90.083 48.669,167.031Z" style="fill:#cd4053;fill-rule:nonzero;"/><path d="M298.645,417.725c-0,-53.378 -43.269,-96.648 -96.646,-96.648c-53.376,-0 -96.645,43.27 -96.645,96.648l-61.653,-0l39.991,205.858l236.614,-0l39.991,-205.858l-61.652,-0Z" style="fill:#ccc5a1;fill-rule:nonzero;"/><path d="M117.224,583.183l-24.84,-125.056l53.381,-0l0,-40.407c0,-31.011 25.231,-56.242 56.241,-56.242c31.01,0 56.24,25.231 56.24,56.242l-0,40.407l53.369,-0l-24.853,125.056l-169.538,-0Z" style="fill:#f8f7ca;fill-rule:nonzero;"/><path d="M277.319,119.863l-150.636,-0c0.75,-3.254 1.502,-6.505 2.127,-9.633c0.376,-1.752 0.75,-3.378 1.126,-5.005l0,-0.375c0.75,-3.378 1.377,-6.631 1.877,-9.759c0.75,-3.627 1.251,-7.132 1.626,-10.51c0.877,-6.256 1.252,-11.886 1.252,-16.64c-0.25,-12.136 1.376,-21.521 4.378,-28.904c0.75,-1.75 1.501,-3.378 2.376,-4.878c1.627,-3.003 3.628,-5.631 6.005,-7.759c2.251,-2.127 4.754,-4.003 7.382,-5.38c2.752,-1.501 5.63,-2.501 8.633,-3.378c1.25,-0.375 2.376,-0.751 3.628,-1.001c6.756,-1.375 14.263,-1.875 22.019,-1.875l25.774,-0c7.758,-0 15.264,0.501 22.02,1.875c1.252,0.25 2.377,0.626 3.628,1.001c2.503,0.627 5.005,1.627 7.258,2.753c1.001,0.502 2.001,1.002 2.878,1.502c2.126,1.251 4.129,2.753 5.881,4.505c2.251,2.128 4.378,4.756 6.004,7.759c0.877,1.5 1.752,3.128 2.377,4.878c3.003,7.383 4.629,16.767 4.378,28.903c-0,4.755 0.375,10.385 1.251,16.641c0.375,3.378 0.877,6.883 1.627,10.509c0.5,3.128 1.125,6.381 1.876,9.76l0,0.375c0.375,1.626 0.75,3.253 1.127,5.004c1.376,6.628 1.753,8.131 2.128,9.631Z" style="fill:#040000;fill-opacity:0.1;fill-rule:nonzero;"/><path d="M285.326,21.772l0,83.451l-166.65,0l-0,-83.328c-0,-12.011 9.759,-21.895 21.769,-21.895l123.112,-0c0.375,-0 0.876,-0 1.251,0.125c11.011,0.502 19.893,9.509 20.393,20.394c0.125,0.376 0.125,0.876 0.125,1.253Z" style="fill:#f6ebc5;fill-rule:nonzero;"/></g><path d="M403.557,447.17c-4.13,65.311 -37.408,270.002 -42.288,291.147c-11.51,50.047 -55.55,57.805 -70.94,58.43c-15.263,0.501 -88.08,3.253 -88.33,3.253l0,-800l61.556,0c0.375,0 0.877,0 1.252,0.125c11.01,0.502 19.893,9.509 20.393,20.394c0.125,0.376 0.125,0.876 0.125,1.253l-0,83.451l-11.261,0c0.375,1.627 0.75,3.254 1.127,5.005c1.376,6.63 1.751,8.133 2.126,9.633c17.392,72.819 51.547,105.225 77.571,160.275c18.767,39.539 53.423,90.086 48.669,167.034Z" style="fill:#040000;fill-opacity:0.1;fill-rule:nonzero;"/></g><path d="M352.762,753.472c-17.265,30.28 -49.546,35.658 -62.306,36.159c-15.264,0.502 -88.08,3.253 -88.33,3.253c-0.25,0 -73.066,-2.751 -88.33,-3.253c-6.756,-0.25 -18.643,-1.876 -31.154,-7.634c-11.385,-5.38 -23.146,-14.263 -31.402,-28.777c3.628,2.128 7.256,3.753 10.884,5.257c14.639,5.754 28.526,7.381 36.533,7.757c17.892,0.5 103.219,3.252 103.469,3.252c0.375,-0 85.702,-2.752 103.593,-3.252c9.633,-0.375 29.151,-2.879 47.043,-12.762Z" style="fill:#040000;fill-opacity:0.1;fill-rule:nonzero;"/></g></svg>